<svg width="9" height="14" viewBox="0 0 9 14" fill="none" xmlns="http://www.w3.org/2000/svg">
<path d="M3.79213 13.76V12.112C2.85346 12.0374 2.06946 11.792 1.44012 11.376C0.821458 10.9494 0.341458 10.448 0.000125051 9.87203L1.08813 8.99203C1.34413 9.49337 1.69079 9.92003 2.12813 10.272C2.57613 10.6134 3.13079 10.832 3.79213 10.928V7.40803L3.10413 7.24803C2.14413 7.0347 1.46679 6.6987 1.07213 6.24003C0.677458 5.78137 0.480125 5.2427 0.480125 4.62403C0.480125 4.11203 0.608125 3.6427 0.864125 3.21603C1.13079 2.7787 1.50946 2.41603 2.00013 2.12803C2.50146 1.84003 3.09879 1.66403 3.79213 1.60003V3.33786e-05H4.89613V1.61603C6.36813 1.7547 7.48813 2.46937 8.25613 3.76003L7.21613 4.56003C6.90679 4.0267 6.56546 3.62137 6.19213 3.34403C5.81879 3.05603 5.38679 2.86937 4.89613 2.78403V6.36803L5.71213 6.54403C6.69346 6.75737 7.37613 7.08803 7.76013 7.53603C8.15479 7.97337 8.35213 8.51737 8.35213 9.16803C8.35213 9.98937 8.03746 10.672 7.40812 11.216C6.78946 11.7494 5.95213 12.0534 4.89613 12.128V13.76H3.79213ZM3.48813 6.04803L3.79213 6.11203V2.75203C3.09879 2.80537 2.58679 2.99203 2.25613 3.31203C1.93613 3.63203 1.77613 4.0107 1.77613 4.44803C1.77613 4.8107 1.88813 5.1307 2.11213 5.40803C2.34679 5.68537 2.80546 5.8987 3.48813 6.04803ZM5.50413 7.79203L4.89613 7.64803V10.96C5.56813 10.9174 6.09613 10.752 6.48013 10.464C6.86413 10.176 7.05613 9.78137 7.05613 9.28003C7.05613 8.94937 6.94413 8.65603 6.72013 8.40003C6.50679 8.13337 6.10146 7.9307 5.50413 7.79203Z" fill="white"/>
</svg>
